<?xml version="1.0" encoding="utf-8"?>
<!-- Generator: Adobe Illustrator 16.0.0, SVG Export Plug-In . SVG Version: 6.00 Build 0)  -->
<!DOCTYPE svg PUBLIC "-//W3C//DTD SVG 1.1//EN" "http://www.w3.org/Graphics/SVG/1.1/DTD/svg11.dtd">
<svg version="1.1" id="Capa_1" xmlns="http://www.w3.org/2000/svg" xmlns:xlink="http://www.w3.org/1999/xlink" x="0px" y="0px"
	 width="24px" height="24px" viewBox="0 0 24 24" enable-background="new 0 0 24 24" xml:space="preserve">
<circle fill="#FFFFFF" stroke="#FFFFFF" stroke-miterlimit="10" cx="12.001" cy="10.25" r="9"/>
<g id="Capa_1_1_" display="none">
	<circle display="inline" fill="#9A7D22" cx="12" cy="10.4" r="10"/>
</g>
<g id="Capa_3">
	<path fill="#B5343A" d="M11.997,0.001L11.997,0.001c-5.66-0.085-10.315,4.434-10.4,10.093c0,0.044,0,0.089,0,0.133
		c0,3.126,1.311,5.527,3.563,7.753c2.972,2.929,5.813,5.599,5.813,5.599c0.311,0.3,0.736,0.45,1.167,0.412v-0.412l0,0V24
		c0.367-0.079,0.715-0.232,1.021-0.455c0,0,2.741-2.74,5.696-5.652c2.254-2.221,3.547-4.533,3.547-7.677
		C22.376,4.547,17.759-0.027,12.09,0C12.06,0,12.028,0,11.997,0.001z M11.997,19c-4.946,0.003-8.957-4.004-8.959-8.949
		c-0.003-4.945,4.003-8.956,8.948-8.959c4.944-0.002,8.956,4.003,8.958,8.949c0,0.003,0,0.007,0,0.011
		C20.939,14.995,16.936,19,11.991,19H11.997z"/>
</g>
<g>
	<path fill="#B5343A" d="M9.318,9.09v-2.5h2.92l0.035-0.992H6.17c-0.3,0-0.6,0.215-0.6,0.517c0,0.129,0.05,0.259,0.2,0.345v8.406
		c0,0.174,0.2,0.347,0.4,0.347h2.749c0.2,0,0.399-0.173,0.399-0.347v-3.792c0-1.337,1.249-2.458,2.849-2.458l0.024-0.689
		c-0.008,0-0.016,0-0.024,0C11.017,7.926,10.018,8.4,9.318,9.09z M8.519,14.522H6.571v-7.89h1.948V14.522z"/>
	<path fill="#B5343A" d="M11.834,7.926c-0.008,0-0.016,0-0.024,0l0.024,0.689c1.6,0,2.848,1.121,2.848,2.458v3.792
		c0,0.174,0.199,0.347,0.4,0.347h2.748c0.201,0,0.398-0.173,0.398-0.347V6.46c0.15-0.086,0.201-0.215,0.201-0.345
		c0-0.302-0.299-0.517-0.6-0.517h-6.103l0.036,0.992h2.918v2.5C13.982,8.4,12.982,7.926,11.834,7.926z M15.48,6.633h1.949v7.89
		H15.48V6.633z"/>
</g>
</svg>
