<?xml version="1.0" encoding="utf-8"?>
<!-- Generator: Adobe Illustrator 16.0.0, SVG Export Plug-In . SVG Version: 6.00 Build 0)  -->
<!DOCTYPE svg PUBLIC "-//W3C//DTD SVG 1.1//EN" "http://www.w3.org/Graphics/SVG/1.1/DTD/svg11.dtd">
<svg version="1.1" id="Capa_1" xmlns="http://www.w3.org/2000/svg" xmlns:xlink="http://www.w3.org/1999/xlink" x="0px" y="0px"
	 width="24px" height="24px" viewBox="0 0 24 24" enable-background="new 0 0 24 24" xml:space="preserve">
<circle fill="#FFFFFF" stroke="#FFFFFF" stroke-miterlimit="10" cx="12.001" cy="10.25" r="9"/>
<g id="Capa_1_1_" display="none">
	<circle display="inline" fill="#9A7D22" cx="12" cy="10.4" r="10"/>
</g>
<g id="Capa_3">
	<path fill="#B5343A" d="M11.997,0.001L11.997,0.001c-5.66-0.085-10.315,4.434-10.4,10.093c0,0.044,0,0.089,0,0.133
		c0,3.126,1.311,5.527,3.563,7.753c2.972,2.929,5.813,5.599,5.813,5.599c0.311,0.3,0.736,0.45,1.167,0.412v-0.412l0,0V24
		c0.367-0.079,0.715-0.232,1.021-0.455c0,0,2.741-2.74,5.696-5.652c2.254-2.221,3.547-4.533,3.547-7.677
		C22.376,4.547,17.759-0.027,12.09,0C12.06,0,12.028,0,11.997,0.001z M11.997,19c-4.946,0.003-8.957-4.004-8.959-8.949
		c-0.003-4.945,4.003-8.956,8.948-8.959c4.944-0.002,8.956,4.003,8.958,8.949c0,0.003,0,0.007,0,0.011
		C20.939,14.995,16.936,19,11.991,19H11.997z"/>
</g>
<g>
	<path fill="#B5343A" d="M18.981,14.86l-2.476-8.755c-0.029-0.061-0.06-0.121-0.12-0.151s-0.151-0.03-0.212-0.03l-2.203,0.634V5.26
		c0-0.151-0.121-0.272-0.272-0.272h-2.445V4.083c0-0.151-0.121-0.272-0.272-0.272h-1.69c-0.151,0-0.272,0.121-0.272,0.272v0.905
		H6.272C6.121,4.988,6,5.109,6,5.26v10.415c0,0.15,0.121,0.272,0.272,0.272h2.989l0,0l0,0h1.69l0,0l0,0h2.687
		c0.151,0,0.272-0.122,0.272-0.272V8.702l1.57,5.494l0,0l0,0l0.451,1.541c0.031,0.061,0.062,0.12,0.122,0.149
		c0.029,0.03,0.09,0.03,0.12,0.03s0.061,0,0.061,0l2.506-0.724C18.951,15.162,19.042,15.01,18.981,14.86z M14.513,8.702l1.993-0.573
		l1.449,5.072l-1.992,0.574L14.513,8.702z M16.054,6.528l0.301,1.087l-1.991,0.574l-0.302-1.087L16.054,6.528z M8.989,7.796H6.543
		V7.434h2.445V7.796z M6.543,8.34h2.445v5.193H6.543V8.34z M9.562,6.377h1.147v6.521H9.562V6.377z M11.283,7.434h2.144v6.099h-2.144
		V7.434z M13.427,5.531V6.92h-2.144V5.531H13.427z M10.709,4.324v1.51H9.562v-1.51H10.709z M8.989,5.531V6.92H6.543V5.531H8.989z
		 M6.543,15.403v-1.297h2.445v1.297H6.543z M9.562,15.403v-1.962h1.147v1.962H9.562z M11.283,15.403v-1.297h2.144v1.297H11.283z
		 M16.415,15.313l-0.302-1.026l1.992-0.573l0.302,1.026L16.415,15.313z"/>
	<path fill="#B5343A" d="M12.853,9.305h-0.996c-0.15,0-0.271,0.122-0.271,0.272v1.75c0,0.151,0.121,0.271,0.271,0.271h0.996
		c0.151,0,0.272-0.121,0.272-0.271v-1.75C13.125,9.427,13.004,9.305,12.853,9.305z M12.581,11.056h-0.453V9.849h0.453V11.056z"/>
</g>
</svg>
